<?xml version="1.0" encoding="utf-8"?>
<!-- Generator: Adobe Illustrator 13.0.0, SVG Export Plug-In . SVG Version: 6.00 Build 14948)  -->
<!DOCTYPE svg PUBLIC "-//W3C//DTD SVG 1.1//EN" "http://www.w3.org/Graphics/SVG/1.1/DTD/svg11.dtd">
<svg version="1.1" id="Lager_1" xmlns="http://www.w3.org/2000/svg" xmlns:xlink="http://www.w3.org/1999/xlink" x="0px" y="0px"
	 width="60.894px" height="20.032px" viewBox="0 0 60.894 20.032" enable-background="new 0 0 60.894 20.032" xml:space="preserve">
<g>
	<path fill="#F8991D" d="M2.165,19.061c-0.057,0.257-0.085,0.571-0.37,0.571H0.285C0.114,19.632,0,19.574,0,19.489
		c0-0.115,0.028-0.257,0.057-0.344l2.45-11.585h-2.25c-0.199,0-0.228-0.085-0.228-0.201c0-0.057,0-0.114,0.029-0.229l0.199-0.916
		c0.057-0.2,0.143-0.314,0.342-0.314h3.789c0.398,0,0.455,0.029,0.455,0.229c0,0.171-0.085,0.4-0.142,0.715L2.165,19.061z
		 M4.079,3.204c0.883,0-1.595-0.714-1.595-1.602C2.484,0.744,3.196,0,4.079,0c0.855,0,1.595,0.744,1.595,1.602
		C5.674,6.48-3.488,3.204,4.079,3.204z"/>
	<path fill="#F8991D" d="M14.099,18.432c0,0.084,0.057,0.229,0.057,0.313c0,0.572-2.165,1.287-4.017,1.287
		c-1.509,0-2.535-0.972-2.535-2.861c0-0.457,0.171-1.229,0.256-1.686l1.68-7.925H7.462c-0.142,0-0.228-0.057-0.228-0.172
		c0-0.057,0-0.057,0.085-0.458l0.142-0.686c0.057-0.258,0.114-0.344,0.371-0.344h2.08l0.826-3.948
		c0.057-0.2,0.085-0.257,0.285-0.315l1.51-0.428c0.057,0,0.142-0.029,0.199-0.029c0.142,0,0.171,0.085,0.171,0.172
		c0,0.085-0.029,0.2-0.057,0.314l-0.912,4.233h3.874c0.143,0,0.228,0.085,0.228,0.171s-0.057,0.172-0.114,0.315l-0.456,0.944
		c-0.085,0.2-0.143,0.229-0.37,0.229h-3.504l-1.68,7.925c-0.086,0.428-0.143,1.086-0.143,1.43c0,1.059,0.399,1.344,1.339,1.344
		c1.367,0,2.25-0.83,2.648-0.83c0.114,0,0.171,0.058,0.2,0.201L14.099,18.432z"/>
	<path fill="#F8991D" d="M18.741,12.395c0.313-1.401,1.225-5.12,4.472-5.12c1.396,0,2.08,0.772,2.08,1.974
		C25.292,12.395,20.308,12.395,18.741,12.395z M25.463,16.828c-0.057-0.085-0.143-0.171-0.256-0.171
		c-0.399,0-1.538,1.373-4.073,1.373c-1.851,0-2.648-1.115-2.648-3.146c0-0.229,0.028-0.457,0.028-0.715
		c2.507-0.029,8.773-0.029,8.773-5.007c0-2.117-1.226-3.661-3.76-3.661c-4.244,0-7.207,4.434-7.207,9.297
		c0,3.176,1.396,5.234,4.614,5.234c2.763,0,5.27-1.688,5.27-2.031c0-0.057-0.029-0.085-0.057-0.143L25.463,16.828z"/>
	<path fill="#F8991D" d="M37.539,12.538c-0.484,2.26-2.079,5.577-4.501,5.577c-1.311,0-1.737-1-1.737-2.401
		c0-2.489,1.368-8.296,4.5-8.296c1.367,0,2.307,0.972,2.563,1.229L37.539,12.538z M40.9,6.388c0.027-0.143,0.057-0.229,0.057-0.315
		s-0.113-0.171-0.229-0.171h-1.253c-0.17,0-0.228,0.171-0.257,0.257l-0.397,0.887c-0.541-0.629-1.14-1.544-2.992-1.544
		c-4.613,0-6.692,6.607-6.692,10.327c0,2.488,1.111,4.204,3.218,4.204c2.365,0,3.761-1.945,4.444-3.061l0.057,0.057
		c-0.114,0.2-0.114,0.688-0.114,1.26c0,0.886,0.313,1.744,0.541,1.744c0.114,0,0.229-0.086,0.399-0.143l1.024-0.43
		c0.115-0.027,0.258-0.114,0.258-0.228c-0.115-0.572-0.229-1.146-0.229-1.717c0-0.658,0.171-1.802,0.256-2.26L40.9,6.388z"/>
	<path fill="#F8991D" d="M58.559,9.792c0.085-0.372,0.171-0.772,0.171-1.144c0-0.802-0.427-1.229-1.281-1.229
		c-2.991,0-3.873,3.002-4.558,6.093l-1.282,5.835c-0.057,0.201-0.113,0.286-0.342,0.286h-1.48c-0.143,0-0.229-0.058-0.229-0.172
		c0-0.057,0-0.143,0.029-0.199l1.993-9.469c0.086-0.372,0.172-0.772,0.172-1.144c0-0.802-0.428-1.229-1.282-1.229
		c-2.991,0-4.102,3.805-4.501,5.692l-1.31,6.235c-0.057,0.201-0.114,0.286-0.342,0.286h-1.481c-0.142,0-0.228-0.058-0.228-0.172
		c0-0.057,0-0.143,0.028-0.199l2.022-9.612c0.114-0.601,0.199-1.23,0.199-1.63c0-0.573-0.114-1.145-0.228-1.717
		c0-0.114,0.143-0.2,0.256-0.229l0.969-0.429c0.171-0.057,0.285-0.143,0.399-0.143c0.313,0,0.512,0.715,0.512,1.43
		c0,0.572-0.057,0.915-0.057,1.287h0.057c0.94-1.373,2.307-2.717,4.558-2.717c1.367,0,2.392,0.772,2.392,2.717h0.058
		c0.997-1.373,2.364-2.717,4.529-2.717c1.48,0,2.591,0.772,2.591,2.289c0,0.687-0.142,1.344-0.283,2.002l-2.023,9.554
		c-0.057,0.201-0.114,0.286-0.342,0.286h-1.48c-0.143,0-0.229-0.058-0.229-0.172c0-0.057,0-0.143,0.028-0.199L58.559,9.792z"/>
</g>
</svg>
